<svg width="11" height="12" viewBox="0 0 11 12" fill="none" xmlns="http://www.w3.org/2000/svg">
<path d="M4.41254 11.7816C3.71652 11.7816 3.09625 11.6609 2.55175 11.4194C2.00724 11.1732 1.57637 10.811 1.25913 10.3328C0.946633 9.84983 0.790383 9.24851 0.790383 8.52881C0.790383 7.92275 0.901652 7.41375 1.12419 7.00182C1.34673 6.58989 1.64976 6.25845 2.03328 6.0075C2.4168 5.75655 2.85241 5.56716 3.3401 5.43932C3.83252 5.31148 4.34862 5.22152 4.88839 5.16943C5.52286 5.10315 6.03423 5.04159 6.42249 4.98477C6.81074 4.92322 7.09247 4.83326 7.26766 4.71489C7.44285 4.59652 7.53044 4.42133 7.53044 4.18932V4.14671C7.53044 3.6969 7.38839 3.34888 7.1043 3.10267C6.82495 2.85646 6.42722 2.73335 5.91112 2.73335C5.36661 2.73335 4.93338 2.85409 4.61141 3.09557C4.28944 3.33231 4.07637 3.63061 3.9722 3.99046L1.17391 3.76318C1.31595 3.1003 1.59531 2.52739 2.01197 2.04443C2.42864 1.55674 2.96605 1.18269 3.62419 0.922274C4.28707 0.657123 5.05411 0.524547 5.92533 0.524547C6.53139 0.524547 7.11141 0.59557 7.66538 0.737615C8.2241 0.879661 8.71889 1.09983 9.14976 1.39813C9.58536 1.69642 9.92864 2.07994 10.1796 2.54869C10.4305 3.01271 10.556 3.56905 10.556 4.21773V11.5757H7.68669V10.0629H7.60146C7.42627 10.4038 7.1919 10.7045 6.89834 10.9649C6.60478 11.2206 6.25203 11.4218 5.8401 11.5686C5.42817 11.7106 4.95232 11.7816 4.41254 11.7816ZM5.27902 9.69358C5.7241 9.69358 6.11709 9.60599 6.458 9.4308C6.79891 9.25087 7.06642 9.0094 7.26055 8.70637C7.45468 8.40334 7.55175 8.06006 7.55175 7.67654V6.51887C7.45705 6.58042 7.32684 6.63724 7.16112 6.68932C7.00014 6.73667 6.81785 6.78165 6.61425 6.82426C6.41065 6.86214 6.20705 6.89765 6.00345 6.9308C5.79985 6.95921 5.61519 6.98525 5.44947 7.00892C5.09436 7.06101 4.78423 7.14387 4.51908 7.2575C4.25392 7.37114 4.04796 7.52502 3.90118 7.71915C3.7544 7.90854 3.68101 8.14529 3.68101 8.42938C3.68101 8.84131 3.83016 9.15618 4.12845 9.37398C4.43148 9.58705 4.815 9.69358 5.27902 9.69358Z" fill="black"/>
</svg>
