<svg width="11" height="12" viewBox="0 0 11 12" fill="none" xmlns="http://www.w3.org/2000/svg">
<path d="M4.43598 11.4203C3.73996 11.4203 3.11969 11.2996 2.57518 11.0581C2.03068 10.8119 1.59981 10.4497 1.28257 9.97146C0.970071 9.4885 0.813821 8.88718 0.813821 8.16748C0.813821 7.56142 0.92509 7.05242 1.14763 6.64049C1.37017 6.22856 1.6732 5.89712 2.05672 5.64617C2.44024 5.39523 2.87585 5.20583 3.36354 5.07799C3.85596 4.95015 4.37206 4.86019 4.91183 4.80811C5.5463 4.74182 6.05767 4.68026 6.44592 4.62345C6.83418 4.56189 7.1159 4.47193 7.29109 4.35356C7.46628 4.23519 7.55388 4.06 7.55388 3.82799V3.78538C7.55388 3.33557 7.41183 2.98756 7.12774 2.74134C6.84839 2.49513 6.45066 2.37203 5.93456 2.37203C5.39005 2.37203 4.95681 2.49276 4.63484 2.73424C4.31287 2.97098 4.09981 3.26928 3.99564 3.62913L1.19734 3.40186C1.33939 2.73898 1.61874 2.16606 2.03541 1.68311C2.45208 1.19542 2.98948 0.821362 3.64763 0.560946C4.31051 0.295795 5.07755 0.163219 5.94876 0.163219C6.55482 0.163219 7.13484 0.234242 7.68882 0.376287C8.24753 0.518333 8.74232 0.738503 9.1732 1.0368C9.6088 1.33509 9.95208 1.71862 10.203 2.18737C10.454 2.65138 10.5794 3.20773 10.5794 3.8564V11.2144H7.71013V9.70157H7.6249C7.44971 10.0425 7.21534 10.3431 6.92178 10.6036C6.62821 10.8592 6.27547 11.0605 5.86354 11.2073C5.4516 11.3493 4.97575 11.4203 4.43598 11.4203ZM5.30246 9.33225C5.74753 9.33225 6.14053 9.24466 6.48143 9.06947C6.82234 8.88954 7.08986 8.64807 7.28399 8.34504C7.47812 8.04201 7.57518 7.69873 7.57518 7.31521V6.15754C7.48049 6.21909 7.35028 6.27591 7.18456 6.32799C7.02357 6.37534 6.84128 6.42032 6.63768 6.46293C6.43409 6.50081 6.23049 6.53632 6.02689 6.56947C5.82329 6.59788 5.63863 6.62392 5.47291 6.64759C5.1178 6.69968 4.80767 6.78254 4.54251 6.89617C4.27736 7.00981 4.0714 7.16369 3.92462 7.35782C3.77784 7.54722 3.70445 7.78396 3.70445 8.06805C3.70445 8.47998 3.85359 8.79485 4.15189 9.01265C4.45492 9.22572 4.83844 9.33225 5.30246 9.33225Z" fill="black"/>
</svg>
