<svg width="11" height="12" viewBox="0 0 11 12" fill="none" xmlns="http://www.w3.org/2000/svg">
<path d="M4.33881 11.7816C3.64279 11.7816 3.02252 11.6609 2.47802 11.4194C1.93351 11.1732 1.50264 10.811 1.1854 10.3328C0.872903 9.84983 0.716653 9.24851 0.716653 8.52881C0.716653 7.92275 0.827922 7.41375 1.05046 7.00182C1.273 6.58989 1.57603 6.25845 1.95955 6.0075C2.34307 5.75655 2.77868 5.56716 3.26637 5.43932C3.75879 5.31148 4.27489 5.22152 4.81466 5.16943C5.44913 5.10315 5.9605 5.04159 6.34875 4.98477C6.73701 4.92322 7.01874 4.83326 7.19393 4.71489C7.36912 4.59652 7.45671 4.42133 7.45671 4.18932V4.14671C7.45671 3.6969 7.31466 3.34888 7.03057 3.10267C6.75122 2.85646 6.35349 2.73335 5.83739 2.73335C5.29288 2.73335 4.85965 2.85409 4.53768 3.09557C4.21571 3.33231 4.00264 3.63061 3.89847 3.99046L1.10018 3.76318C1.24222 3.1003 1.52158 2.52739 1.93824 2.04443C2.35491 1.55674 2.89232 1.18269 3.55046 0.922274C4.21334 0.657123 4.98038 0.524547 5.8516 0.524547C6.45766 0.524547 7.03768 0.59557 7.59165 0.737615C8.15037 0.879661 8.64516 1.09983 9.07603 1.39813C9.51163 1.69642 9.85491 2.07994 10.1059 2.54869C10.3568 3.01271 10.4823 3.56905 10.4823 4.21773V11.5757H7.61296V10.0629H7.52773C7.35254 10.4038 7.11817 10.7045 6.82461 10.9649C6.53105 11.2206 6.1783 11.4218 5.76637 11.5686C5.35444 11.7106 4.87858 11.7816 4.33881 11.7816ZM5.20529 9.69358C5.65037 9.69358 6.04336 9.60599 6.38427 9.4308C6.72518 9.25087 6.99269 9.0094 7.18682 8.70637C7.38095 8.40334 7.47802 8.06006 7.47802 7.67654V6.51887C7.38332 6.58042 7.25311 6.63724 7.08739 6.68932C6.92641 6.73667 6.74412 6.78165 6.54052 6.82426C6.33692 6.86214 6.13332 6.89765 5.92972 6.9308C5.72612 6.95921 5.54146 6.98525 5.37574 7.00892C5.02063 7.06101 4.7105 7.14387 4.44535 7.2575C4.18019 7.37114 3.97423 7.52502 3.82745 7.71915C3.68067 7.90854 3.60728 8.14529 3.60728 8.42938C3.60728 8.84131 3.75643 9.15618 4.05472 9.37398C4.35775 9.58705 4.74127 9.69358 5.20529 9.69358Z" fill="black"/>
</svg>
