<svg width="11" height="12" viewBox="0 0 11 12" fill="none" xmlns="http://www.w3.org/2000/svg">
<path d="M5.60432 11.4274C4.4869 11.4274 3.52572 11.1907 2.7208 10.7172C1.92061 10.239 1.30508 9.5761 0.874207 8.72856C0.44807 7.88102 0.235002 6.90564 0.235002 5.80242C0.235002 4.685 0.450438 3.70489 0.881309 2.86208C1.31691 2.01454 1.93481 1.35403 2.735 0.880548C3.53519 0.402329 4.4869 0.163219 5.59012 0.163219C6.54182 0.163219 7.37515 0.336041 8.09012 0.681684C8.80508 1.02733 9.37089 1.51265 9.78756 2.13765C10.2042 2.76265 10.4339 3.49655 10.4765 4.33936H7.62137C7.54087 3.79485 7.32781 3.35687 6.98216 3.02543C6.64125 2.68926 6.19381 2.52117 5.63983 2.52117C5.17108 2.52117 4.76152 2.64901 4.41114 2.9047C4.06549 3.15564 3.79561 3.52259 3.60148 4.00555C3.40735 4.4885 3.31029 5.07326 3.31029 5.75981C3.31029 6.45583 3.40498 7.04769 3.59438 7.53538C3.78851 8.02307 4.06076 8.39475 4.41114 8.65043C4.76152 8.90612 5.17108 9.03396 5.63983 9.03396C5.98548 9.03396 6.29561 8.96293 6.57023 8.82089C6.84959 8.67884 7.07923 8.47288 7.25915 8.20299C7.44381 7.92837 7.56455 7.5993 7.62137 7.21578H10.4765C10.4291 8.04911 10.2019 8.78301 9.79466 9.41748C9.3922 10.0472 8.83585 10.5396 8.12563 10.8948C7.4154 11.2499 6.57496 11.4274 5.60432 11.4274Z" fill="black"/>
</svg>
