<svg width="11" height="12" viewBox="0 0 11 12" fill="none" xmlns="http://www.w3.org/2000/svg">
<path d="M5.44997 11.4274C4.32781 11.4274 3.36191 11.2002 2.55225 10.7456C1.74732 10.2863 1.12706 9.63765 0.691451 8.79958C0.255845 7.95678 0.0380416 6.96009 0.0380416 5.80953C0.0380416 4.68737 0.255845 3.70252 0.691451 2.85498C1.12706 2.00744 1.74022 1.34693 2.53094 0.873446C3.32639 0.399961 4.25916 0.163219 5.32923 0.163219C6.04893 0.163219 6.71891 0.279223 7.33918 0.51123C7.96418 0.738503 8.50869 1.08178 8.9727 1.54106C9.44145 2.00034 9.80603 2.57799 10.0665 3.27401C10.3269 3.9653 10.4571 4.77496 10.4571 5.70299V6.53396H1.24543V4.65896H7.60906C7.60906 4.22335 7.51437 3.83746 7.32497 3.50129C7.13558 3.16511 6.8728 2.90233 6.53662 2.71293C6.20518 2.51881 5.81929 2.42174 5.37895 2.42174C4.91967 2.42174 4.51247 2.52828 4.15736 2.74134C3.80698 2.94968 3.53236 3.2314 3.3335 3.58651C3.13463 3.93689 3.03283 4.32752 3.0281 4.75839V6.54106C3.0281 7.08083 3.12753 7.54722 3.32639 7.94021C3.52999 8.3332 3.81645 8.63623 4.18577 8.8493C4.55509 9.06237 4.99306 9.1689 5.49969 9.1689C5.83586 9.1689 6.14363 9.12155 6.42298 9.02686C6.70234 8.93216 6.94145 8.79011 7.14031 8.60072C7.33918 8.41132 7.49069 8.17932 7.59486 7.9047L10.3932 8.08936C10.2511 8.7617 9.95992 9.34883 9.51958 9.85072C9.08397 10.3479 8.52052 10.7361 7.82923 11.0155C7.14268 11.2901 6.34959 11.4274 5.44997 11.4274Z" fill="black"/>
</svg>
