<svg width="12" height="12" viewBox="0 0 12 12" fill="none" xmlns="http://www.w3.org/2000/svg">
<path d="M6.05337 11.4274C4.93121 11.4274 3.9653 11.2002 3.15564 10.7456C2.35072 10.2863 1.73045 9.63765 1.29484 8.79958C0.859238 7.95678 0.641435 6.96009 0.641435 5.80953C0.641435 4.68737 0.859238 3.70252 1.29484 2.85498C1.73045 2.00744 2.34361 1.34693 3.13433 0.873446C3.92979 0.399961 4.86255 0.163219 5.93263 0.163219C6.65233 0.163219 7.32231 0.279223 7.94257 0.51123C8.56757 0.738503 9.11208 1.08178 9.57609 1.54106C10.0448 2.00034 10.4094 2.57799 10.6698 3.27401C10.9303 3.9653 11.0605 4.77496 11.0605 5.70299V6.53396H1.84882V4.65896H8.21246C8.21246 4.22335 8.11776 3.83746 7.92837 3.50129C7.73897 3.16511 7.47619 2.90233 7.14001 2.71293C6.80858 2.51881 6.42269 2.42174 5.98234 2.42174C5.52306 2.42174 5.11587 2.52828 4.76075 2.74134C4.41037 2.94968 4.13575 3.2314 3.93689 3.58651C3.73803 3.93689 3.63623 4.32752 3.63149 4.75839V6.54106C3.63149 7.08083 3.73092 7.54722 3.92979 7.94021C4.13339 8.3332 4.41984 8.63623 4.78916 8.8493C5.15848 9.06237 5.59645 9.1689 6.10308 9.1689C6.43926 9.1689 6.74702 9.12155 7.02638 9.02686C7.30573 8.93216 7.54484 8.79011 7.74371 8.60072C7.94257 8.41132 8.09409 8.17932 8.19825 7.9047L10.9965 8.08936C10.8545 8.7617 10.5633 9.34883 10.123 9.85072C9.68736 10.3479 9.12392 10.7361 8.43263 11.0155C7.74608 11.2901 6.95299 11.4274 6.05337 11.4274Z" fill="black"/>
</svg>
