<svg width="17" height="12" viewBox="0 0 17 12" fill="none" xmlns="http://www.w3.org/2000/svg">
<path d="M0.481434 11.7974V0.888272H3.36496V2.81299H3.4928C3.72007 2.17378 4.09886 1.66952 4.62916 1.3002C5.15946 0.930886 5.79393 0.746227 6.53257 0.746227C7.28068 0.746227 7.91751 0.933253 8.44308 1.30731C8.96865 1.67662 9.31903 2.17852 9.49422 2.81299H9.60786C9.83039 2.18799 10.2329 1.68846 10.8152 1.31441C11.4024 0.935621 12.096 0.746227 12.8962 0.746227C13.9142 0.746227 14.7404 1.07056 15.3749 1.71924C16.0141 2.36318 16.3337 3.277 16.3337 4.46072V11.7974H13.3152V5.05731C13.3152 4.45125 13.1543 3.9967 12.8323 3.69367C12.5103 3.39064 12.1079 3.23912 11.6249 3.23912C11.0757 3.23912 10.6472 3.41431 10.3394 3.76469C10.0316 4.11034 9.87774 4.56725 9.87774 5.13543V11.7974H6.9445V4.99339C6.9445 4.45835 6.79062 4.03221 6.48285 3.71498C6.17982 3.39774 5.77973 3.23912 5.28257 3.23912C4.9464 3.23912 4.64337 3.32435 4.37348 3.49481C4.10833 3.66053 3.89763 3.8949 3.74138 4.19793C3.58513 4.49623 3.507 4.84661 3.507 5.24907V11.7974H0.481434Z" fill="black"/>
</svg>
