<svg width="17" height="12" viewBox="0 0 17 12" fill="none" xmlns="http://www.w3.org/2000/svg">
<path d="M0.723744 11.5757V0.666592H3.60727V2.59131H3.73511C3.96238 1.9521 4.34117 1.44784 4.87147 1.07852C5.40177 0.709206 6.03624 0.524547 6.77488 0.524547C7.52299 0.524547 8.15982 0.711574 8.68539 1.08563C9.21096 1.45494 9.56134 1.95684 9.73653 2.59131H9.85016C10.0727 1.96631 10.4752 1.46678 11.0576 1.09273C11.6447 0.713941 12.3383 0.524547 13.1385 0.524547C14.1565 0.524547 14.9827 0.848884 15.6172 1.49756C16.2564 2.1415 16.576 3.05532 16.576 4.23904V11.5757H13.5576V4.83563C13.5576 4.22957 13.3966 3.77502 13.0746 3.47199C12.7526 3.16896 12.3502 3.01744 11.8672 3.01744C11.318 3.01744 10.8895 3.19263 10.5817 3.54301C10.2739 3.88866 10.1201 4.34557 10.1201 4.91375V11.5757H7.18681V4.77171C7.18681 4.23667 7.03293 3.81053 6.72516 3.4933C6.42213 3.17606 6.02204 3.01744 5.52488 3.01744C5.18871 3.01744 4.88568 3.10267 4.61579 3.27313C4.35064 3.43885 4.13994 3.67322 3.98369 3.97625C3.82744 4.27455 3.74931 4.62493 3.74931 5.02739V11.5757H0.723744Z" fill="black"/>
</svg>
