<svg width="11" height="12" viewBox="0 0 11 12" fill="none" xmlns="http://www.w3.org/2000/svg">
<path d="M3.28337 4.90754V11.2144H0.257801V0.305264H3.14132V2.22998H3.26917C3.51064 1.59551 3.91547 1.09362 4.48365 0.724298C5.05184 0.350245 5.74076 0.163219 6.55042 0.163219C7.30799 0.163219 7.9685 0.328939 8.53195 0.660378C9.0954 0.991817 9.53337 1.4653 9.84587 2.08083C10.1584 2.69163 10.3146 3.42079 10.3146 4.26833V11.2144H7.28905V4.80811C7.29379 4.14049 7.12333 3.61966 6.77769 3.24561C6.43204 2.86682 5.95619 2.67742 5.35013 2.67742C4.94293 2.67742 4.58309 2.76502 4.27059 2.94021C3.96282 3.1154 3.72134 3.37108 3.54615 3.70725C3.3757 4.03869 3.2881 4.43879 3.28337 4.90754Z" fill="black"/>
</svg>
