<svg width="11" height="12" viewBox="0 0 11 12" fill="none" xmlns="http://www.w3.org/2000/svg">
<path d="M3.17393 5.26887V11.5757H0.148365V0.666592H3.03189V2.59131H3.15973C3.40121 1.95684 3.80604 1.45494 4.37422 1.08563C4.9424 0.711574 5.63132 0.524547 6.44098 0.524547C7.19855 0.524547 7.85907 0.690267 8.42251 1.02171C8.98596 1.35315 9.42393 1.82663 9.73643 2.44216C10.0489 3.05296 10.2052 3.78212 10.2052 4.62966V11.5757H7.17962V5.16943C7.18435 4.50182 7.0139 3.98099 6.66825 3.60693C6.32261 3.22815 5.84676 3.03875 5.2407 3.03875C4.8335 3.03875 4.47365 3.12635 4.16115 3.30154C3.85338 3.47673 3.61191 3.73241 3.43672 4.06858C3.26626 4.40002 3.17867 4.80012 3.17393 5.26887Z" fill="black"/>
</svg>
