<svg width="11" height="12" viewBox="0 0 11 12" fill="none" xmlns="http://www.w3.org/2000/svg">
<path d="M5.55952 11.4274C4.4563 11.4274 3.50223 11.193 2.6973 10.7243C1.89712 10.2508 1.27922 9.59267 0.843611 8.74987C0.408005 7.90233 0.190202 6.91985 0.190202 5.80242C0.190202 4.67553 0.408005 3.69068 0.843611 2.84788C1.27922 2.00034 1.89712 1.3422 2.6973 0.873446C3.50223 0.399961 4.4563 0.163219 5.55952 0.163219C6.66274 0.163219 7.61444 0.399961 8.41463 0.873446C9.21956 1.3422 9.83982 2.00034 10.2754 2.84788C10.711 3.69068 10.9288 4.67553 10.9288 5.80242C10.9288 6.91985 10.711 7.90233 10.2754 8.74987C9.83982 9.59267 9.21956 10.2508 8.41463 10.7243C7.61444 11.193 6.66274 11.4274 5.55952 11.4274ZM5.57372 9.08367C6.07562 9.08367 6.49465 8.94163 6.83083 8.65754C7.167 8.36871 7.42032 7.97572 7.59077 7.47856C7.76596 6.9814 7.85355 6.41559 7.85355 5.78112C7.85355 5.14665 7.76596 4.58083 7.59077 4.08367C7.42032 3.58651 7.167 3.19352 6.83083 2.9047C6.49465 2.61587 6.07562 2.47146 5.57372 2.47146C5.0671 2.47146 4.64096 2.61587 4.29532 2.9047C3.95441 3.19352 3.69636 3.58651 3.52117 4.08367C3.35071 4.58083 3.26549 5.14665 3.26549 5.78112C3.26549 6.41559 3.35071 6.9814 3.52117 7.47856C3.69636 7.97572 3.95441 8.36871 4.29532 8.65754C4.64096 8.94163 5.0671 9.08367 5.57372 9.08367Z" fill="black"/>
</svg>
