<svg width="11" height="16" viewBox="0 0 11 16" fill="none" xmlns="http://www.w3.org/2000/svg">
<path d="M0.23766 15.6666V0.666592H3.22061V2.49898H3.35556C3.48813 2.20542 3.67989 1.90712 3.93084 1.60409C4.18652 1.29633 4.51796 1.04065 4.92516 0.837047C5.33709 0.628714 5.84846 0.524547 6.45925 0.524547C7.25471 0.524547 7.98861 0.732881 8.66096 1.14955C9.3333 1.56148 9.87071 2.18411 10.2732 3.01744C10.6756 3.84604 10.8769 4.88534 10.8769 6.13534C10.8769 7.3522 10.6804 8.37966 10.2874 9.21773C9.89912 10.0511 9.36882 10.6832 8.69647 11.114C8.02885 11.5402 7.28075 11.7532 6.45215 11.7532C5.86503 11.7532 5.3655 11.6562 4.95357 11.462C4.54637 11.2679 4.21257 11.0241 3.95215 10.7305C3.69173 10.4322 3.49287 10.1316 3.35556 9.82852H3.26323V15.6666H0.23766ZM3.19931 6.12114C3.19931 6.76981 3.28927 7.33563 3.46919 7.81858C3.64912 8.30154 3.90953 8.67796 4.25044 8.94784C4.59135 9.21299 5.00565 9.34557 5.49334 9.34557C5.98577 9.34557 6.40243 9.21063 6.74334 8.94074C7.08425 8.66612 7.3423 8.28733 7.51749 7.80438C7.69741 7.31669 7.78738 6.75561 7.78738 6.12114C7.78738 5.4914 7.69978 4.93743 7.52459 4.45921C7.3494 3.98099 7.09135 3.60693 6.75044 3.33705C6.40953 3.06716 5.9905 2.93222 5.49334 2.93222C5.00092 2.93222 4.58425 3.06243 4.24334 3.32284C3.90717 3.58326 3.64912 3.95258 3.46919 4.4308C3.28927 4.90902 3.19931 5.47246 3.19931 6.12114Z" fill="black"/>
</svg>
