<svg width="11" height="12" viewBox="0 0 11 12" fill="none" xmlns="http://www.w3.org/2000/svg">
<path d="M10.0347 3.41606L7.26482 3.58651C7.21747 3.34977 7.11567 3.1367 6.95942 2.94731C6.80317 2.75318 6.5972 2.5993 6.34152 2.48566C6.09057 2.36729 5.78991 2.30811 5.43953 2.30811C4.97078 2.30811 4.57542 2.40754 4.25345 2.6064C3.93148 2.80053 3.7705 3.06095 3.7705 3.38765C3.7705 3.64807 3.87466 3.86824 4.083 4.04816C4.29133 4.22809 4.64881 4.3725 5.15544 4.4814L7.12987 4.87913C8.19048 5.09693 8.9812 5.44731 9.50203 5.93026C10.0229 6.41322 10.2833 7.04769 10.2833 7.83367C10.2833 8.54864 10.0726 9.176 9.65118 9.71578C9.23451 10.2555 8.6616 10.677 7.93243 10.98C7.208 11.2783 6.3723 11.4274 5.42533 11.4274C3.9812 11.4274 2.83063 11.1268 1.97362 10.5254C1.12135 9.91937 0.621822 9.09551 0.475042 8.05384L3.45089 7.89759C3.54086 8.33793 3.75866 8.67411 4.1043 8.90612C4.44995 9.13339 4.89266 9.24703 5.43243 9.24703C5.96273 9.24703 6.38887 9.14523 6.71084 8.94163C7.03754 8.73329 7.20326 8.46578 7.208 8.13907C7.20326 7.86445 7.08726 7.63954 6.85999 7.46436C6.63271 7.28443 6.28233 7.14712 5.80885 7.05242L3.91964 6.676C2.8543 6.46293 2.06122 6.09362 1.54038 5.56805C1.02428 5.04248 0.766235 4.3725 0.766235 3.55811C0.766235 2.85735 0.955629 2.25365 1.33442 1.74703C1.71794 1.2404 2.25535 0.849772 2.94663 0.57515C3.64266 0.30053 4.45705 0.163219 5.38982 0.163219C6.76766 0.163219 7.85194 0.454412 8.64266 1.0368C9.43811 1.61918 9.90213 2.41227 10.0347 3.41606Z" fill="black"/>
</svg>
