<svg width="11" height="12" viewBox="0 0 11 12" fill="none" xmlns="http://www.w3.org/2000/svg">
<path d="M10.1498 3.41606L7.37993 3.58651C7.33258 3.34977 7.23078 3.1367 7.07453 2.94731C6.91828 2.75318 6.71231 2.5993 6.45663 2.48566C6.20568 2.36729 5.90502 2.30811 5.55464 2.30811C5.08589 2.30811 4.69053 2.40754 4.36856 2.6064C4.04659 2.80053 3.88561 3.06095 3.88561 3.38765C3.88561 3.64807 3.98978 3.86824 4.19811 4.04816C4.40644 4.22809 4.76392 4.3725 5.27055 4.4814L7.24498 4.87913C8.30559 5.09693 9.09631 5.44731 9.61714 5.93026C10.138 6.41322 10.3984 7.04769 10.3984 7.83367C10.3984 8.54864 10.1877 9.176 9.76629 9.71578C9.34962 10.2555 8.77671 10.677 8.04754 10.98C7.32311 11.2783 6.48741 11.4274 5.54044 11.4274C4.09631 11.4274 2.94574 11.1268 2.08873 10.5254C1.23646 9.91937 0.736935 9.09551 0.590155 8.05384L3.56601 7.89759C3.65597 8.33793 3.87377 8.67411 4.21942 8.90612C4.56506 9.13339 5.00777 9.24703 5.54754 9.24703C6.07784 9.24703 6.50398 9.14523 6.82595 8.94163C7.15265 8.73329 7.31837 8.46578 7.32311 8.13907C7.31837 7.86445 7.20237 7.63954 6.9751 7.46436C6.74783 7.28443 6.39745 7.14712 5.92396 7.05242L4.03476 6.676C2.96942 6.46293 2.17633 6.09362 1.6555 5.56805C1.1394 5.04248 0.881348 4.3725 0.881348 3.55811C0.881348 2.85735 1.07074 2.25365 1.44953 1.74703C1.83305 1.2404 2.37046 0.849772 3.06175 0.57515C3.75777 0.30053 4.57216 0.163219 5.50493 0.163219C6.88277 0.163219 7.96705 0.454412 8.75777 1.0368C9.55322 1.61918 10.0172 2.41227 10.1498 3.41606Z" fill="black"/>
</svg>
