<svg width="8" height="15" viewBox="0 0 8 15" fill="none" xmlns="http://www.w3.org/2000/svg">
<path d="M7.1527 3.30526V5.57799H0.583102V3.30526H7.1527ZM2.07458 0.691628H5.10015V10.8621C5.10015 11.1414 5.14276 11.3592 5.22799 11.5155C5.31322 11.667 5.43159 11.7735 5.5831 11.8351C5.73935 11.8966 5.91928 11.9274 6.12287 11.9274C6.26492 11.9274 6.40697 11.9156 6.54901 11.8919C6.69106 11.8635 6.79996 11.8422 6.87572 11.828L7.35157 14.0794C7.20005 14.1268 6.98698 14.1812 6.71236 14.2428C6.43774 14.3091 6.10394 14.3493 5.71094 14.3635C4.98178 14.3919 4.34257 14.2948 3.79333 14.0723C3.24882 13.8498 2.82505 13.5041 2.52202 13.0354C2.21899 12.5666 2.06984 11.9748 2.07458 11.2598V0.691628Z" fill="black"/>
</svg>
