<svg width="8" height="14" viewBox="0 0 8 14" fill="none" xmlns="http://www.w3.org/2000/svg">
<path d="M7.01837 2.66659V4.93932H0.448764V2.66659H7.01837ZM1.94024 0.0529561H4.96581V10.2234C4.96581 10.5028 5.00842 10.7206 5.09365 10.8768C5.17888 11.0283 5.29725 11.1349 5.44876 11.1964C5.60501 11.258 5.78494 11.2888 5.98854 11.2888C6.13058 11.2888 6.27263 11.2769 6.41467 11.2532C6.55672 11.2248 6.66562 11.2035 6.74138 11.1893L7.21723 13.4407C7.06571 13.4881 6.85265 13.5425 6.57803 13.6041C6.3034 13.6704 5.9696 13.7106 5.5766 13.7248C4.84744 13.7532 4.20823 13.6562 3.65899 13.4336C3.11448 13.2111 2.69071 12.8655 2.38768 12.3967C2.08465 11.928 1.93551 11.3361 1.94024 10.6211V0.0529561Z" fill="black"/>
</svg>
