<svg width="1046" height="840" viewBox="0 0 1046 840" fill="none" xmlns="http://www.w3.org/2000/svg">
<g filter="url(#filter0_d_153_179)">
<path d="M35.9403 179.145C33.1056 149.456 54.8748 123.091 84.5631 120.256L256.763 103.815C275.809 101.996 294.394 110.391 305.621 125.882L467.556 349.332C494.483 386.489 465.73 438.171 419.96 434.881L103.418 412.131C77.125 410.241 56.0391 389.644 53.5335 363.402L35.9403 179.145Z" fill="#EABF6F"/>
<rect x="66.8159" y="194.187" width="866.778" height="267.263" rx="18" transform="rotate(-5.45417 66.8159 194.187)" fill="#E8DFCF"/>
<rect x="44.3638" y="267.363" width="896.084" height="514.152" rx="54" transform="rotate(-5.45417 44.3638 267.363)" fill="#EDC987"/>
<path d="M927.056 84.4278C924.222 54.7395 897.857 32.9703 868.168 35.805L695.968 52.247C676.923 54.0655 660.261 65.8256 652.169 83.1618L535.445 333.219C516.036 374.799 554.051 420.106 598.371 408.215L904.888 325.974C930.348 319.142 947.155 294.927 944.65 268.686L927.056 84.4278Z" fill="#EDC987"/>
<rect x="664.802" y="97.0596" width="224.303" height="123.444" rx="10" transform="rotate(-5.45417 664.802 97.0596)" fill="#E8DFCF"/>
</g>
<path d="M709.025 170.477L706.197 140.852L711.698 140.327L714.083 165.296L729.572 163.817L730.017 168.473L709.025 170.477Z" fill="black"/>
<path d="M744.297 167.408C741.786 167.648 739.538 167.364 737.554 166.557C735.594 165.72 734.009 164.476 732.798 162.826C731.616 161.174 730.918 159.233 730.705 157.004C730.489 154.747 730.793 152.711 731.616 150.895C732.465 149.049 733.717 147.549 735.372 146.394C737.055 145.237 739.026 144.551 741.283 144.335C743.483 144.125 745.49 144.417 747.303 145.212C749.116 146.007 750.599 147.232 751.754 148.887C752.908 150.542 753.599 152.555 753.825 154.925C753.847 155.151 753.857 155.406 753.855 155.691C753.882 155.973 753.894 156.242 753.89 156.499L735.057 158.297L734.721 154.784L750.761 153.253L748.792 154.551C748.697 153.251 748.32 152.134 747.661 151.2C747.002 150.266 746.152 149.564 745.111 149.094C744.098 148.622 742.956 148.446 741.687 148.567C740.389 148.691 739.273 149.082 738.34 149.741C737.434 150.397 736.748 151.26 736.28 152.329C735.839 153.368 735.682 154.564 735.812 155.919L735.893 156.765C736.022 158.119 736.447 159.289 737.167 160.274C737.888 161.258 738.839 161.979 740.021 162.435C741.204 162.892 742.529 163.05 743.996 162.91C745.266 162.789 746.389 162.482 747.367 161.99C748.345 161.498 749.189 160.791 749.898 159.869L753.045 162.857C752.142 164.139 750.946 165.179 749.456 165.976C747.992 166.742 746.272 167.22 744.297 167.408Z" fill="black"/>
<path d="M765.57 165.078L753.72 143.404L759.222 142.878L769.463 162.016L766.754 162.275L773.485 141.517L778.563 141.032L771.029 164.557L765.57 165.078Z" fill="black"/>
<path d="M794.059 162.657C791.548 162.897 789.3 162.613 787.315 161.806C785.356 160.968 783.771 159.724 782.56 158.075C781.377 156.422 780.679 154.482 780.466 152.253C780.251 149.996 780.555 147.959 781.378 146.144C782.227 144.298 783.479 142.797 785.134 141.643C786.817 140.486 788.787 139.799 791.044 139.584C793.245 139.374 795.252 139.666 797.064 140.461C798.877 141.256 800.361 142.481 801.515 144.136C802.67 145.791 803.36 147.803 803.586 150.174C803.608 150.399 803.618 150.655 803.617 150.939C803.644 151.221 803.655 151.491 803.651 151.747L784.818 153.546L784.483 150.033L800.523 148.501L798.554 149.8C798.458 148.499 798.081 147.382 797.423 146.449C796.764 145.515 795.914 144.813 794.873 144.343C793.859 143.87 792.718 143.695 791.448 143.816C790.15 143.94 789.035 144.331 788.101 144.99C787.196 145.646 786.509 146.508 786.042 147.578C785.6 148.617 785.444 149.813 785.573 151.167L785.654 152.014C785.783 153.368 786.208 154.538 786.929 155.522C787.649 156.507 788.6 157.228 789.783 157.684C790.965 158.141 792.29 158.299 793.757 158.159C795.027 158.038 796.151 157.731 797.129 157.239C798.107 156.747 798.95 156.04 799.66 155.118L802.806 158.106C801.904 159.388 800.708 160.428 799.218 161.225C797.753 161.991 796.034 162.468 794.059 162.657Z" fill="black"/>
<path d="M809.735 160.861L806.737 129.459L812.027 128.953L815.025 160.356L809.735 160.861Z" fill="black"/>
<path d="M855.557 155.74C857.091 155.593 858.216 154.231 858.069 152.697L856.571 137.001L819.539 140.537L821.038 156.233C821.184 157.767 822.546 158.891 824.08 158.745L855.557 155.74Z" fill="black"/>
<path d="M819.539 140.537L821.038 156.233C821.184 157.767 822.546 158.891 824.08 158.745L855.557 155.74C857.091 155.593 858.216 154.231 858.069 152.697L856.571 137.001M819.539 140.537L818.739 132.162C818.593 130.628 819.718 129.266 821.252 129.12L852.729 126.114C854.262 125.968 855.625 127.093 855.771 128.627L856.571 137.001M819.539 140.537L856.571 137.001" stroke="black" stroke-width="2" stroke-linejoin="round"/>
<path d="M822.708 134.585C822.61 133.562 823.36 132.654 824.383 132.557C825.405 132.459 826.313 133.209 826.411 134.231C826.509 135.254 825.759 136.162 824.736 136.26C823.714 136.357 822.806 135.608 822.708 134.585Z" fill="black"/>
<path d="M828.527 134.029C828.43 133.007 829.179 132.099 830.202 132.001C831.225 131.903 832.133 132.653 832.23 133.676C832.328 134.698 831.578 135.606 830.556 135.704C829.533 135.802 828.625 135.052 828.527 134.029Z" fill="black"/>
<path d="M830.168 152.942C829.05 153.049 828.144 152.819 827.447 152.251C826.759 151.682 826.358 150.805 826.245 149.617L825.806 145.02L827.319 144.876L827.752 149.415C827.832 150.253 828.069 150.845 828.462 151.191C828.863 151.536 829.393 151.677 830.053 151.615C830.712 151.552 831.202 151.313 831.523 150.899C831.843 150.484 831.964 149.858 831.884 149.02L831.45 144.481L832.94 144.339L833.379 148.936C833.492 150.123 833.261 151.062 832.685 151.751C832.116 152.439 831.277 152.836 830.168 152.942Z" fill="white"/>
<path d="M835.837 152.284L835.059 144.137L838.411 143.817C839.133 143.748 839.761 143.805 840.295 143.989C840.837 144.172 841.268 144.468 841.589 144.876C841.91 145.283 842.099 145.786 842.156 146.384C842.213 146.981 842.123 147.51 841.885 147.971C841.647 148.433 841.279 148.804 840.782 149.087C840.292 149.368 839.686 149.544 838.964 149.613L836.45 149.853L837.058 149.078L837.35 152.139L835.837 152.284ZM837.073 149.241L836.328 148.572L838.772 148.339C839.44 148.275 839.927 148.088 840.234 147.777C840.548 147.457 840.68 147.041 840.631 146.529C840.582 146.009 840.373 145.626 840.005 145.379C839.644 145.132 839.131 145.04 838.463 145.104L836.019 145.337L836.623 144.528L837.073 149.241Z" fill="white"/>
<path d="M834.347 133.474C834.249 132.451 834.999 131.543 836.021 131.446C837.044 131.348 837.952 132.098 838.05 133.12C838.147 134.143 837.398 135.051 836.375 135.149C835.352 135.246 834.444 134.497 834.347 133.474Z" fill="black"/>
<path fill-rule="evenodd" clip-rule="evenodd" d="M844.551 142.546C844.591 142.507 844.64 142.48 844.695 142.469C844.749 142.457 844.806 142.461 844.858 142.481L851.353 144.929C851.408 144.949 851.455 144.986 851.488 145.033C851.522 145.081 851.541 145.137 851.542 145.195C851.543 145.254 851.526 145.311 851.494 145.359C851.462 145.408 851.417 145.446 851.363 145.469L849.576 146.219L851.481 148.143C851.535 148.198 851.565 148.272 851.565 148.349C851.565 148.426 851.534 148.5 851.48 148.554L850.503 149.521C850.449 149.575 850.375 149.605 850.298 149.605C850.221 149.605 850.147 149.574 850.093 149.519L848.185 147.596L847.422 149.373C847.4 149.426 847.361 149.471 847.312 149.503C847.263 149.534 847.206 149.55 847.147 149.548C847.089 149.547 847.033 149.528 846.986 149.494C846.938 149.46 846.903 149.412 846.883 149.357L844.483 142.853C844.464 142.801 844.46 142.744 844.472 142.69C844.484 142.635 844.512 142.586 844.551 142.546ZM845.248 143.249L847.176 148.474L847.821 146.971C847.84 146.927 847.869 146.889 847.906 146.859C847.943 146.829 847.987 146.809 848.034 146.8C848.081 146.791 848.129 146.794 848.174 146.808C848.22 146.822 848.261 146.847 848.294 146.881L850.301 148.904L850.864 148.346L848.86 146.322C848.826 146.288 848.801 146.247 848.788 146.201C848.774 146.156 848.772 146.108 848.781 146.061C848.79 146.014 848.811 145.971 848.841 145.934C848.871 145.897 848.91 145.868 848.953 145.85L850.465 145.215L845.248 143.249Z" fill="white"/>
<defs>
<filter id="filter0_d_153_179" x="0.691895" y="0.556885" width="1044.68" height="838.746" filterUnits="userSpaceOnUse" color-interpolation-filters="sRGB">
<feFlood flood-opacity="0" result="BackgroundImageFix"/>
<feColorMatrix in="SourceAlpha" type="matrix" values="0 0 0 0 0 0 0 0 0 0 0 0 0 0 0 0 0 0 127 0" result="hardAlpha"/>
<feOffset dx="15" dy="15"/>
<feGaussianBlur stdDeviation="25"/>
<feComposite in2="hardAlpha" operator="out"/>
<feColorMatrix type="matrix" values="0 0 0 0 0 0 0 0 0 0 0 0 0 0 0 0 0 0 0.5 0"/>
<feBlend mode="normal" in2="BackgroundImageFix" result="effect1_dropShadow_153_179"/>
<feBlend mode="normal" in="SourceGraphic" in2="effect1_dropShadow_153_179" result="shape"/>
</filter>
</defs>
</svg>
